<svg width="100" height="100" viewBox="0 0 100 100" fill="none" xmlns="http://www.w3.org/2000/svg">
<g clip-path="url(#clip0_138_2)">
<path d="M15.2699 79H0.568182L17.1321 28.8182H35.7543L52.3182 79H37.6165L26.6392 42.6378H26.2472L15.2699 79ZM12.5256 59.2017H40.1648V69.3949H12.5256V59.2017ZM57.1514 79V28.8182H78.8119C82.5363 28.8182 85.7952 29.4961 88.5885 30.8519C91.3818 32.2077 93.5544 34.1598 95.1063 36.7081C96.6581 39.2564 97.434 42.3111 97.434 45.8722C97.434 49.4659 96.6336 52.4961 95.0328 54.9627C93.4482 57.4293 91.2185 59.2915 88.3435 60.5494C85.4848 61.8072 82.1443 62.4361 78.3218 62.4361H65.3843V51.8509H75.5775C77.1784 51.8509 78.5423 51.6548 79.6695 51.2628C80.8129 50.8544 81.6869 50.2092 82.2913 49.3271C82.912 48.445 83.2224 47.2933 83.2224 45.8722C83.2224 44.4347 82.912 43.2667 82.2913 42.3683C81.6869 41.4535 80.8129 40.7837 79.6695 40.359C78.5423 39.918 77.1784 39.6974 75.5775 39.6974H70.7749V79H57.1514ZM86.5548 55.9673L99.1002 79H84.3005L72.0491 55.9673H86.5548Z" fill="white"/>
</g>
<defs>
<clipPath id="clip0_138_2">
<rect width="100" height="100" fill="white"/>
</clipPath>
</defs>
</svg>
